<?xml version="1.0" encoding="UTF-8"?>
<svg version="1.1" xmlns="http://www.w3.org/2000/svg" width="6000" height="1829">
<path d="M0 0 C1980 0 3960 0 6000 0 C6000 603.57 6000 1207.14 6000 1829 C4020 1829 2040 1829 0 1829 C0 1225.43 0 621.86 0 0 Z " fill="#FFFFFF" transform="translate(0,0)"/>
<path d="M0 0 C4.6845541 3.18002578 7.14210617 6.26699541 8.703125 11.828125 C9.28958032 17.30170795 8.30073163 20.99120232 5.703125 25.828125 C2.20223596 30.10698939 -1.12991666 31.95952637 -6.296875 33.828125 C-9.46533203 34.02539062 -9.46533203 34.02539062 -12.9296875 33.734375 C-13.59630402 33.68108032 -14.26292053 33.62778564 -14.94973755 33.57287598 C-21.95739091 32.96252113 -28.93415354 32.03456169 -35.9140625 31.171875 C-39.70760843 30.71414351 -43.50138756 30.25845126 -47.29541016 29.8046875 C-49.87796819 29.48719454 -52.45878179 29.15517201 -55.03759766 28.80859375 C-69.62593997 26.86521219 -81.42992891 25.37464801 -94.79736328 32.30664062 C-98.63345398 33.9744596 -100.34748143 34.02820463 -104.296875 32.828125 C-105.296875 31.828125 -105.296875 31.828125 -105.484375 28.390625 C-105.296875 24.828125 -105.296875 24.828125 -103.296875 22.828125 C-101.32392883 22.86247253 -101.32392883 22.86247253 -98.86450195 23.22729492 C-81.2823596 25.26808527 -68.36897461 20.85959478 -52.33062744 13.93157959 C-49.23327116 12.60463853 -46.11513577 11.32855586 -42.99804688 10.04882812 C-38.42217104 8.1647334 -33.85946515 6.25381136 -29.30541992 4.31762695 C-25.33841787 2.65640672 -21.36128239 1.0369468 -17.34106445 -0.49145508 C-16.49292679 -0.81398758 -15.64478912 -1.13652008 -14.77095032 -1.46882629 C-9.54544527 -2.95373847 -4.82232241 -2.46036858 0 0 Z " fill="#780DAA" transform="translate(130.296875,27.171875)"/>
<path d="M0 0 C1.50724553 0.09728464 3.01379502 0.20584726 4.51953125 0.32421875 C5.26267578 0.37255859 6.00582031 0.42089844 6.77148438 0.47070312 C11.33072703 0.78637374 15.81627422 1.31192594 20.33203125 2.01171875 C18.54785543 5.5800704 14.21897339 6.30247119 10.64453125 7.69921875 C9.84080078 8.03244141 9.03707031 8.36566406 8.20898438 8.70898438 C3.54890983 10.54176921 0.31123209 11.5564472 -4.66796875 10.01171875 C-5.66796875 9.01171875 -5.66796875 9.01171875 -5.85546875 5.57421875 C-5.59535797 0.63211391 -4.95980207 0.01584601 0 0 Z " fill="#9C12DE" transform="translate(30.66796875,49.98828125)"/>
</svg>
